<?xml version="1.0" encoding="utf-8"?>
<?xml-stylesheet type="text/xsl" href="rss1.xsl"?>
<rss version="2.0" xmlns:atom="http://www.w3.org/2005/Atom" xmlns:content="http://purl.org/rss/1.0/modules/content/" xmlns:dc="http://purl.org/dc/elements/1.1/" xmlns:media="http://search.yahoo.com/mrss/">
<channel>
 <title>Getty</title>
 <link>http://www.gettyimg.com/</link>
 <atom:link href="http://www.gettyimg.com/" rel="self" type="application/rss+xml" />

 
                <item>
                <title><![CDATA[【MASTER &amp; MASTER RIP】MASTER - Alan Walker feat. Gavin James - Tired [Master / ProRes 1080p / PCM 24-bit 48 kHz]]]></title>
                <link><![CDATA[https://sharemania.us/threads/alan-walker-feat-gavin-james-tired-master-prores-1080p-pcm-24-bit-48-khz.222090/]]></link>
                <description><![CDATA[<article>
<blockquote class="messageText SelectQuoteContainer ugc baseHtml">
<b><img src="https://images2.imgbox.com/93/87/lQBaLMVd_o.jpg" class="bbCodeImage LbImage" alt="[​IMG]" data-url="https://images2.imgbox.com/93/87/lQBaLMVd_o.jpg" style=""> <br>
<br>
Genre: <span style="color: #0059b3">Electronic</span> <br>
Style: <span style="color: #0059b3">Dance-pop, House</span> <br>
Year: <span style="color: #0059b3">2017</span> <br>
Video Format: <span style="color: #0059b3">ProRes 422 HQ</span><br>
Audio Format: <span style="color: #0059b3">PCM 24-bit 48 kHz</span></b><br>
<br>
"<b>Tired</b>" is a song by Norwegian DJ and music producer Alan Walker, featuring Irish singer-songwriter Gavin James. The song was written by Mike Needle, Dan Bryer, Gavin James and Ollie Green, and was produced by Alan Walker, Gunnar Greve, Mood Melodies, Lars Kristian Rosness, Marcus Arnbekk, Fredrik Borch Olsen and Carl Hovind. It was released commercially for digital download on 19 May 2017. On 14 July 2017, Kygo released a remix of the song.<br>
<br>
The artwork video of the song's cover and the trailer was released on May 15 and 17, respectively. The official music video was then released on May 19, 2017. The video begins as the solar flare named "Eleanor" is expected to impact Earth in 47 minutes, according to the music video trailer. The music video included flashbacks, some scenes of panicking crowds running around the streets, and newscast footages of random rioting and in terms of violence. In the final moments before the storm hits, a black-bloc-hooded man and a woman held their hands together as the countdown approaches, and as the solar storm hits Earth, the entire city and the world immediately blacks out due to the total loss of global electrical power and the music video ends.<br>
<br>
Chronologically, a sequel of "Tired", All Falls Down was released that same year on October 26 and it shows the aftermath of the "Solar Storm Eleanor", about hundreds of years after the storm's impact.<br>
<br>
As of June 5, 2023, "Tired" has amassed 152 million views and 1.5 million likes on YouTube.<br>
<br>
<div class="ToggleTriggerAnchor bbCodeSpoilerContainer">
<button type="button" class="button bbCodeSpoilerButton ToggleTrigger Tooltip JsOnly" data-target="> .SpoilerTarget"><span>Spoiler: <span class="SpoilerTitle">Media Info</span></span></button>
<div class="SpoilerTarget bbCodeSpoilerText">
<div class="bbCodeBlock bbCodeCode">
<div class="type">Code:</div>
<pre>General
Complete name                  : C:\Users\hjvan\Desktop\2do2\Alan Walker\Alan Walker feat. Gavin James - Tired [Master ProRes PCM].mov
Format                         : MPEG-4
Format profile                 : QuickTime
Codec ID                       : qt   2005.03 (qt  )
File size                      : 4.42 GiB
Duration                       : 3 min 39 s
Overall bit rate mode          : Variable
Overall bit rate               : 173 Mb/s
Frame rate                     : 25.000 FPS
Encoded date                   : 2017-05-11 11:56:11 UTC
Tagged date                    : 2017-05-11 11:58:24 UTC
Writing library                : Apple QuickTime
TIM                            : 00:09:50:00
TSC                            : 25
TSZ                            : 1

Video
ID                             : 1
Format                         : ProRes
Format version                 : Version 0
Format profile                 : 422 HQ
Codec ID                       : apch
Duration                       : 3 min 39 s
Bit rate mode                  : Variable
Bit rate                       : 171 Mb/s
Width                          : 1 920 pixels
Height                         : 1 080 pixels
Display aspect ratio           : 16:9
Frame rate mode                : Constant
Frame rate                     : 25.000 FPS
Color space                    : YUV
Chroma subsampling             : 4:2:2
Scan type                      : Progressive
Bits/(Pixel*Frame)             : 3.299
Stream size                    : 4.36 GiB (99%)
Writing library                : Apple
Language                       : English
Encoded date                   : 2017-05-11 11:56:11 UTC
Tagged date                    : 2017-05-11 11:56:11 UTC
Color primaries                : BT.709
Transfer characteristics       : BT.709
Matrix coefficients            : BT.709

Audio
ID                             : 2
Format                         : PCM
Format settings                : Little / Signed
Codec ID                       : in24
Duration                       : 3 min 39 s
Bit rate mode                  : Constant
Bit rate                       : 2 304 kb/s
Channel(s)                     : 2 channels
Channel layout                 : L R
Sampling rate                  : 48.0 kHz
Bit depth                      : 24 bits
Stream size                    : 60.2 MiB (1%)
Language                       : English
Encoded date                   : 2017-05-11 11:56:11 UTC
Tagged date                    : 2017-05-11 11:56:11 UTC

Other
ID                             : 3
Type                           : Time code
Format                         : QuickTime TC
Duration                       : 3 min 39 s
Frame rate                     : 25.000 FPS
Time code of first frame       : 00:09:50:00
Time code of last frame        : 00:13:29:03
Time code, stripped            : Yes
Language                       : English
Encoded date                   : 2017-05-11 11:56:11 UTC
Tagged date                    : 2017-05-11 11:56:11 UTC
</pre>
</div></div>
</div><br>
<div class="bbCodeBlock bbCodeVfcHH HiddenContent">
<div class="attribution type">Hidden Content:</div>
<blockquote>You must reply before you can see the hidden data contained here.</blockquote>
</div>
<div class="messageTextEndMarker">&nbsp;</div>
</blockquote>
</article>]]></description>
                <author><![CDATA[ADHDerby]]></author>
                </item>

                </channel></rss>